<svg width="22" height="22" viewBox="0 0 22 22" fill="none" xmlns="http://www.w3.org/2000/svg">
<path d="M11 12.134C10.7755 12.134 10.556 12.0674 10.3693 11.9426C10.1827 11.8179 10.0372 11.6406 9.95131 11.4331C9.86543 11.2256 9.84302 10.9974 9.88689 10.7772C9.93077 10.557 10.039 10.3548 10.1978 10.1961C10.3566 10.0374 10.559 9.92935 10.7792 9.88567C10.9994 9.84199 11.2277 9.86461 11.435 9.95067C11.6424 10.0367 11.8196 10.1824 11.9442 10.3691C12.0688 10.5559 12.1352 10.7755 12.135 11C12.1347 11.3008 12.015 11.5893 11.8022 11.8019C11.5894 12.0145 11.3009 12.134 11 12.134Z" fill="white" stroke="white" stroke-width="1.5" stroke-linecap="round" stroke-linejoin="round"/>
<path d="M11 20.077C10.7755 20.077 10.556 20.0104 10.3693 19.8856C10.1827 19.7609 10.0372 19.5835 9.95131 19.3761C9.86543 19.1686 9.84302 18.9404 9.88689 18.7202C9.93077 18.5 10.039 18.2977 10.1978 18.1391C10.3566 17.9804 10.559 17.8723 10.7792 17.8287C10.9994 17.785 11.2277 17.8076 11.435 17.8937C11.6424 17.9797 11.8196 18.1254 11.9442 18.3121C12.0688 18.4989 12.1352 18.7185 12.135 18.943C12.1347 19.2438 12.015 19.5323 11.8022 19.7449C11.5894 19.9575 11.3009 20.077 11 20.077Z" fill="white" stroke="white" stroke-width="1.5" stroke-linecap="round" stroke-linejoin="round"/>
<path d="M11 4.19099C10.7755 4.19099 10.556 4.1244 10.3693 3.99964C10.1827 3.87488 10.0372 3.69756 9.95131 3.4901C9.86543 3.28265 9.84302 3.05439 9.88689 2.83419C9.93077 2.614 10.039 2.41176 10.1978 2.25307C10.3566 2.09438 10.559 1.98636 10.7792 1.94268C10.9994 1.899 11.2277 1.92162 11.435 2.00767C11.6424 2.09373 11.8196 2.23936 11.9442 2.42615C12.0688 2.61293 12.1352 2.83247 12.135 3.05699C12.1347 3.35784 12.015 3.64627 11.8022 3.85891C11.5894 4.07155 11.3009 4.19099 11 4.19099Z" fill="white" stroke="white" stroke-width="1.5" stroke-linecap="round" stroke-linejoin="round"/>
</svg>
